<svg width="64" height="64" viewBox="0 0 64 64" fill="none" xmlns="http://www.w3.org/2000/svg">
  <path
    d="M54.6663 16.8179C54.6647 16.303 54.3819 15.805 53.9397 15.538L43.8756 9.62733C43.5661 9.44554 43.1835 9.4453 42.8675 9.61575C36.1527 13.2384 27.8674 13.2372 21.1536 9.61227C20.8412 9.44359 20.4632 9.44175 20.1551 9.61818L10.0599 15.3989C9.6177 15.6659 9.33493 16.1639 9.33327 16.6788C9.27942 32.125 17.7535 46.7388 31.1334 54.4356C31.6602 54.7384 32.3394 54.7384 32.8662 54.4356C46.2037 46.7631 54.6705 32.2153 54.6663 16.8179Z"
    stroke="white" stroke-width="3" stroke-miterlimit="10" />
  <path
    d="M28.6776 21.4404C28.5 21.8692 28.5 22.4128 28.5 23.5V25.7213C28.5 25.7741 28.5 25.8005 28.4836 25.8169C28.4672 25.8333 28.4408 25.8333 28.388 25.8333H26.1666C25.0794 25.8333 24.5358 25.8333 24.107 26.0109C23.5353 26.2478 23.0811 26.702 22.8442 27.2737C22.6666 27.7025 22.6666 28.2461 22.6666 29.3333C22.6666 30.4205 22.6666 30.9641 22.8442 31.3929C23.0811 31.9647 23.5353 32.4189 24.107 32.6557C24.5358 32.8333 25.0794 32.8333 26.1666 32.8333H28.388C28.4408 32.8333 28.4672 32.8333 28.4836 32.8497C28.5 32.8661 28.5 32.8925 28.5 32.9453V35.1667C28.5 36.2539 28.5 36.7975 28.6776 37.2263C28.9144 37.798 29.3686 38.2522 29.9404 38.4891C30.3692 38.6667 30.9128 38.6667 32 38.6667C33.0872 38.6667 33.6308 38.6667 34.0596 38.4891C34.6313 38.2522 35.0855 37.798 35.3223 37.2263C35.5 36.7975 35.5 36.2539 35.5 35.1667V32.9453C35.5 32.8925 35.5 32.8661 35.5164 32.8497C35.5328 32.8333 35.5592 32.8333 35.612 32.8333H37.8333C38.9205 32.8333 39.4641 32.8333 39.8929 32.6557C40.4646 32.4189 40.9189 31.9647 41.1557 31.3929C41.3333 30.9641 41.3333 30.4205 41.3333 29.3333C41.3333 28.2461 41.3333 27.7025 41.1557 27.2737C40.9189 26.702 40.4646 26.2478 39.8929 26.0109C39.4641 25.8333 38.9205 25.8333 37.8333 25.8333H35.612C35.5592 25.8333 35.5328 25.8333 35.5164 25.8169C35.5 25.8005 35.5 25.7741 35.5 25.7213V23.5C35.5 22.4128 35.5 21.8692 35.3223 21.4404C35.0855 20.8687 34.6313 20.4144 34.0596 20.1776C33.6308 20 33.0872 20 32 20C30.9128 20 30.3692 20 29.9404 20.1776C29.3686 20.4144 28.9144 20.8687 28.6776 21.4404Z"
    stroke="white" stroke-width="3" />
</svg>
