<svg width="64" height="64" viewBox="0 0 64 64" fill="none" xmlns="http://www.w3.org/2000/svg">
  <path
    d="M54.8485 32C55.5966 29.6147 56 27.2229 56 24.9034C56 17.0337 50.024 10.6667 42.656 10.6667C38.312 10.6667 34.424 12.9079 32 16.3715C29.576 12.9079 25.712 10.6667 21.344 10.6667C13.976 10.6667 8 17.0337 8 24.9034C8 27.831 8.45972 30.6534 9.30757 33.3333M54.8485 32C51.7502 41.8799 42.7403 51.6497 32 55.7214C21.4347 51.716 12.5438 43.5625 9.30757 33.3333M54.8485 32H48.2761C48.0993 32 47.9298 31.9298 47.8047 31.8047L44.654 28.654C44.3323 28.3323 43.7898 28.4203 43.5864 28.8273L40.4137 35.1727C40.2102 35.5797 39.6677 35.6677 39.346 35.346L36.5565 32.5565C36.2652 32.2652 35.782 32.3052 35.5426 32.6404L30.1929 40.13C29.8591 40.5973 29.1299 40.452 29.0008 39.8924L25.7234 25.6901C25.586 25.0951 24.7875 24.9824 24.491 25.5162L19.1659 35.1013C18.9314 35.5235 18.3396 35.564 18.0498 35.1776L15.1279 31.2816C14.8845 30.957 14.41 30.9233 14.1231 31.2102L12.1953 33.1381C12.0702 33.2631 11.9007 33.3333 11.7239 33.3333H10.5286H9.30757"
    stroke="white" stroke-width="3" stroke-linecap="round" stroke-linejoin="round" />
</svg>
