<svg width="20" height="27" viewBox="0 0 20 27" fill="none" xmlns="http://www.w3.org/2000/svg">
  <path
    d="M13.2 13C13.2 13.6133 13.02 14.2067 12.66 14.78C12.3267 15.3 11.8467 15.6933 11.22 15.96C10.6333 16.2 10.0167 16.26 9.37 16.14C8.72333 16.02 8.17333 15.7333 7.72 15.28C7.26667 14.8267 6.97667 14.27 6.85 13.61C6.72333 12.95 6.78667 12.34 7.04 11.78C7.29333 11.18 7.69 10.7 8.23 10.34C8.77 9.98 9.36 9.8 10 9.8C10.4267 9.8 10.8367 9.88333 11.23 10.05C11.6233 10.2167 11.9667 10.4467 12.26 10.74C12.5533 11.0333 12.7833 11.3767 12.95 11.77C13.1167 12.1633 13.2 12.5733 13.2 13ZM20 8.6V17.4C20 18.1333 19.8567 18.8433 19.57 19.53C19.2833 20.2167 18.8767 20.8233 18.35 21.35C17.8233 21.8767 17.2167 22.2833 16.53 22.57C15.8433 22.8567 15.1333 23 14.4 23H5.6C4.86667 23 4.15667 22.8567 3.47 22.57C2.78333 22.2833 2.17667 21.8767 1.65 21.35C1.12333 20.8233 0.716667 20.2167 0.43 19.53C0.143333 18.8433 0 18.1333 0 17.4V8.6C0 7.86667 0.143333 7.15667 0.43 6.47C0.716667 5.78333 1.12333 5.17667 1.65 4.65C2.17667 4.12333 2.78333 3.71667 3.47 3.43C4.15667 3.14333 4.86667 3 5.6 3H14.4C15.1333 3 15.8433 3.14333 16.53 3.43C17.2167 3.71667 17.8233 4.12333 18.35 4.65C18.8767 5.17667 19.2833 5.78333 19.57 6.47C19.8567 7.15667 20 7.86667 20 8.6ZM14.78 13C14.78 12.04 14.5133 11.1467 13.98 10.32C13.7267 9.93333 13.4133 9.59 13.04 9.29C12.6667 8.99 12.2667 8.74667 11.84 8.56C10.9333 8.18667 10.0067 8.09333 9.06 8.28C8.08667 8.49333 7.27333 8.93333 6.62 9.6C5.92667 10.2933 5.48667 11.1133 5.3 12.06C5.20667 12.5133 5.18333 12.98 5.23 13.46C5.27667 13.94 5.39 14.3967 5.57 14.83C5.75 15.2633 5.99 15.6633 6.29 16.03C6.59 16.3967 6.94 16.7133 7.34 16.98C8.16667 17.5133 9.06 17.78 10.02 17.78C10.6467 17.78 11.2533 17.6567 11.84 17.41C12.4267 17.1633 12.9467 16.8133 13.4 16.36C13.8533 15.9067 14.2 15.39 14.44 14.81C14.68 14.23 14.8067 13.62 14.82 12.98L14.78 13ZM16.38 7.8C16.38 7.54667 16.3133 7.32667 16.18 7.14C16.0333 6.92667 15.8533 6.77667 15.64 6.69C15.4267 6.60333 15.2 6.58 14.96 6.62C14.72 6.66 14.51 6.77 14.33 6.95C14.15 7.13 14.04 7.33667 14 7.57C13.96 7.80333 13.98 8.03333 14.06 8.26C14.1267 8.44667 14.2733 8.62667 14.5 8.8C14.7133 8.94667 14.9333 9.02 15.16 9.02C15.4667 9.02 15.7533 8.9 16.02 8.66C16.2467 8.43333 16.36 8.15333 16.36 7.82L16.38 7.8Z"
    fill="#1F2023" />
</svg>
