<svg version="1.1" xmlns="http://www.w3.org/2000/svg" xmlns:xlink="http://www.w3.org/1999/xlink" width="50px" height="50px" viewBox="0,0,256,256"><g fill="#ffffff" fill-rule="nonzero" stroke="none" stroke-width="1" stroke-linecap="butt" stroke-linejoin="miter" stroke-miterlimit="10" stroke-dasharray="" stroke-dashoffset="0" font-family="none" font-weight="none" font-size="none" text-anchor="none" style="mix-blend-mode: normal"><g transform="scale(5.12,5.12)"><path d="M28,1.04297c-2.76142,0 -5,2.23858 -5,5c0,2.76142 2.23858,5 5,5c2.76142,0 5,-2.23858 5,-5c0,-2.76142 -2.23858,-5 -5,-5zM24,13c-4,0 -4,2.906 -4,4c0,3.563 1.72852,8.80078 1.72852,8.80078c0.3,0.9 0.89922,1.69922 1.69922,2.19922l5.59961,3.30078c0.301,0.2 0.60239,0.29883 0.90039,0.29883c0.6,0 1.20061,-0.29944 1.59961,-0.89844c0.5,-0.901 0.20178,-2.00195 -0.69922,-2.50195l-5.60156,-3.29883l-1.14453,-3.94141c-0.068,-0.135 -0.11328,-0.28136 -0.11328,-0.44336c0,-0.552 0.448,-1 1,-1c0.464,0 0.83522,0.322 0.94922,0.75c0,0 0.00586,0.001 0.00586,0l0.9668,3.26563l2.46875,1.46875h4.64063v-5l3.33203,5h4.32813c-2.321,-3.457 -6.91816,-10.258 -7.66016,-11c-1,-1 -3,-1 -3,-1zM32.54492,27c1.102,1.012 1.50748,2.561 1.02148,4h9.43359c1.104,0 2,-0.896 2,-2c0,-1.104 -0.896,-2 -2,-2zM21.6582,29.1582l0.00977,2.8418h2.73828l0.50391,-0.80469l-2.49805,-1.47266c-0.015,-0.009 -0.03092,-0.01934 -0.04492,-0.02734c-0.252,-0.158 -0.48398,-0.34311 -0.70898,-0.53711zM5,31c-2.1908,0.00366 -4.12407,1.43309 -4.76964,3.52662c-0.64557,2.09353 0.14692,4.3635 1.95519,5.60033c-1.25658,0.35782 -2.18555,1.50338 -2.18555,2.87305v5h50v-4c0,-1.159 -0.841,-2 -2,-2h-1.03125c1.123,0 2.03125,-0.90925 2.03125,-2.03125c0,-1.122 -0.90925,-2.03125 -2.03125,-2.03125l-15.8457,-1.02344l1.67578,-4.60937c-0.746,0.818 -1.77909,1.29687 -2.87109,1.29687c-0.681,0 -1.33708,-0.20256 -1.95508,-0.60156l-1.33789,-0.78711l-1.12305,1.78711h-10.51172c-2.209,0 -4,1.791 -4,4c0,2.209 1.791,4 4,4h-3.93164l-0.6875,-0.82422c-0.589,-0.736 -1.47886,-1.17578 -2.38086,-1.17578h-0.00977c1.72029,-1.29021 2.42298,-3.53584 1.74497,-5.57651c-0.67801,-2.04067 -2.58485,-3.41929 -4.73521,-3.42349zM18,36h9c2.206,0 4,1.794 4,4c0,0.731 -0.21164,1.409 -0.55664,2h-3.44336c1.1,0 2,-0.9 2,-2c0,-1.1 -0.9,-2 -2,-2h-9c-0.552,0 -1,-0.447 -1,-1c0,-0.553 0.448,-1 1,-1z"></path></g></g></svg>
