<svg width="20" height="27" viewBox="0 0 20 27" fill="none" xmlns="http://www.w3.org/2000/svg">
  <path
    d="M1 6C1 5.41333 1.20333 4.93333 1.61 4.56C2.01667 4.18667 2.54333 4 3.19 4C3.83667 4 4.35667 4.18667 4.75 4.56C5.14333 4.93333 5.34 5.42667 5.34 6.04C5.34 6.6 5.14667 7.06 4.76 7.42C4.33333 7.80667 3.8 8 3.16 8H3.14C2.5 8 1.98333 7.80667 1.59 7.42C1.19667 7.03333 1 6.56 1 6ZM1.22 21.14V9.58H5.08V21.14H1.22ZM7.22 21.14H11.08V14.68C11.08 14.2533 11.1267 13.94 11.22 13.74C11.3933 13.3267 11.64 13 11.96 12.76C12.28 12.48 12.6933 12.34 13.2 12.34C14.4933 12.34 15.14 13.2133 15.14 14.96V21.14H19V14.5C19 12.78 18.5967 11.4833 17.79 10.61C16.9833 9.73667 15.9133 9.3 14.58 9.3C13.0867 9.3 11.92 9.94 11.08 11.22V11.26H11.06L11.08 11.22V9.58H7.22C7.24667 10.06 7.26 11.2067 7.26 13.02C7.26 14.0067 7.25333 15.9467 7.24 18.84L7.22 21.14Z"
    fill="white" />
</svg>
