<svg width="19" height="15" viewBox="0 0 19 15" fill="none" xmlns="http://www.w3.org/2000/svg">
  <path
    d="M14.963 14.2764H16.3333C17.3459 14.2764 18.228 13.4294 17.9063 12.4693C17.4161 11.0062 16.2101 10.1214 14.09 9.81494M11.2918 6.81889C11.5585 6.90321 11.864 6.94311 12.2083 6.94311C13.7361 6.94311 14.5 6.1574 14.5 4.19311C14.5 2.22883 13.7361 1.44312 12.2083 1.44312C11.864 1.44312 11.5585 1.48302 11.2918 1.56734M6.70833 9.69311C10.0207 9.69311 11.7862 10.6185 12.4063 12.4693C12.728 13.4294 11.8459 14.2764 10.8333 14.2764H2.58333C1.57081 14.2764 0.688679 13.4294 1.01034 12.4693C1.63042 10.6185 3.396 9.69311 6.70833 9.69311ZM6.70833 6.94311C8.23611 6.94311 9 6.1574 9 4.19311C9 2.22883 8.23611 1.44312 6.70833 1.44312C5.18055 1.44312 4.41666 2.22883 4.41666 4.19311C4.41666 6.1574 5.18055 6.94311 6.70833 6.94311Z"
    stroke="white" stroke-width="1.4" stroke-linecap="round" stroke-linejoin="round" />
</svg>
