<svg width="64" height="64" viewBox="0 0 64 64" fill="none" xmlns="http://www.w3.org/2000/svg">
  <path
    d="M18.6666 51.3333C18.6666 50.2288 19.5621 49.3333 20.6666 49.3333H43.3333C44.4379 49.3333 45.3333 50.2288 45.3333 51.3333V54.1667C45.3333 54.4428 45.1094 54.6667 44.8333 54.6667H19.1666C18.8905 54.6667 18.6666 54.4428 18.6666 54.1667V51.3333Z"
    stroke="#382B84" stroke-width="3" />
  <path
    d="M23.8636 40C23.8636 40 27.4984 42.7244 29.7002 43.1774C31.6623 43.5811 33.696 43.4612 35.5971 42.8298C37.4981 42.1984 39.1994 41.0777 40.53 39.5803C41.8607 38.083 42.7737 36.2618 43.1774 34.2997C43.5811 32.3377 43.4612 30.3039 42.8298 28.4029C42.5273 27.4923 42.1126 26.6275 41.598 25.8273L41.3334 25.3333M18.1439 40C18.1439 40 20.0851 42.8166 21.3717 43.9599C23.4711 45.8255 26.0246 47.1057 28.7755 47.6717C31.5265 48.2377 34.378 48.0696 37.0434 47.1843C39.7088 46.299 42.0942 44.7277 43.9599 42.6283C45.8255 40.5289 47.1057 37.9754 47.6717 35.2244C48.2377 32.4735 48.0696 29.622 47.1843 26.9566C46.7198 25.5579 46.0663 24.2364 45.2468 23.0266L45.0504 22.8139M41.3334 25.3333C43.0195 25.3333 44.4619 24.2901 45.0504 22.8139M41.3334 25.3333C39.9244 25.3333 38.6856 24.6048 37.973 23.5039M45.0504 22.8139C45.233 22.3559 45.3334 21.8563 45.3334 21.3333C45.3334 20.3028 44.9437 19.3633 44.3036 18.6541M45.5461 13.5948L45.3334 13.7603M45.5461 13.5948C46.0605 14.2662 46.945 14.2793 47.5682 13.7771C48.4983 13.0276 48.5914 11.691 47.8825 10.7656L47.2419 9.9294C46.533 9.00401 45.2182 8.74598 44.2524 9.44883C43.6103 9.91619 43.3967 10.7891 43.902 11.4487M45.5461 13.5948L44.7241 12.5217L43.902 11.4487M43.902 11.4487L43.6926 11.6186M43.6926 11.6186L45.3334 13.7603M43.6926 11.6186C42.7272 10.3583 42.2444 9.72822 41.5863 9.5293C41.3655 9.46256 41.1353 9.43208 40.9048 9.43903C40.2175 9.45976 39.5874 9.94249 38.3272 10.9079L25.0122 21.1083C24.6541 21.3827 24.4751 21.5198 24.3464 21.6612C23.7472 22.3196 23.6198 23.281 24.027 24.0727C24.1144 24.2427 24.2516 24.4217 24.5259 24.7798M45.3334 13.7603C45.9713 14.5931 46.2903 15.0095 46.3967 15.445C46.5233 15.9637 46.4508 16.5111 46.1935 16.979C45.9774 17.3718 45.561 17.6908 44.7283 18.3288L44.3036 18.6541M24.5259 24.7798L27.8506 29.1197M24.5259 24.7798L21.7962 26.8727C21.1562 27.3631 20.8361 27.6084 20.6557 27.9009C20.3763 28.3537 20.3035 28.9041 20.4554 29.414C20.5535 29.7434 20.7987 30.0634 21.2891 30.7035C21.7795 31.3435 22.0248 31.6635 22.3173 31.844C22.7701 32.1233 23.3205 32.1962 23.8304 32.0443C24.1598 31.9461 24.4798 31.7009 25.1199 31.2105L27.8506 29.1197M27.8506 29.1197C28.4209 29.8641 29.4866 30.0052 30.2309 29.435L37.973 23.5039M37.973 23.5039C37.5683 22.8787 37.3334 22.1334 37.3334 21.3333C37.3334 19.1241 39.1242 17.3333 41.3334 17.3333C42.512 17.3333 43.5716 17.843 44.3036 18.6541"
    stroke="#382B84" stroke-width="3" />
  <path d="M17.3334 40H28" stroke="#382B84" stroke-width="3" stroke-linecap="round" />
</svg>
