<svg width="19" height="19" viewBox="0 0 19 19" fill="none" xmlns="http://www.w3.org/2000/svg">
  <path
    d="M1.09253 3.63644C1.91414 10.8995 8.1005 17.0859 15.3636 17.9075C16.3109 18.0146 17.1346 17.3271 17.3216 16.3922L17.7004 14.4979C17.8773 13.6135 17.4404 12.7202 16.6337 12.3168L15.3983 11.6992C14.5886 11.2943 13.6052 11.5264 13.062 12.2507C12.7082 12.7224 12.14 13.01 11.5962 12.782C9.7272 11.9986 7.00142 9.2728 6.21796 7.40381C5.99002 6.86004 6.27761 6.2918 6.7493 5.93802C7.47356 5.39483 7.70571 4.41142 7.30084 3.60168L6.68316 2.36632C6.27982 1.55963 5.38646 1.12271 4.50207 1.29959L2.60777 1.67845C1.67292 1.86542 0.985367 2.68912 1.09253 3.63644Z"
    stroke="#382B84" stroke-width="1.4" stroke-linecap="round" stroke-linejoin="round" />
</svg>
