<svg id="Layer_1" enable-background="new 0 0 450 450" height="512" viewBox="0 0 450 450" width="512" xmlns="http://www.w3.org/2000/svg">
  <path fill="#FFFFFF" d="m370.4 445.8h-173.2c-2.8 0-5-2.2-5-5v-75.6h-102.3c-2.8 0-5-2.2-5-5v-70.7c-18.2-5.2-28.4-12.7-31.1-22.8-4.6-16.8 13.1-34.7 28.8-50.4l1.9-1.9c5.1-5.2 3.8-9.1-1.7-20-4.7-9.3-10.6-20.9-8-36.3 21.9-130.9 114.7-151.7 168-152.4 52.8-.7 101.6 30.2 130.7 82.6 15.2 27.3 23.5 57.9 24 88.4.6 32.6-8 63.6-24.7 89.7-28.3 44.6 2.1 171.9 2.4 173.2.4 1.5 0 3.1-.9 4.3-1 1.2-2.4 1.9-3.9 1.9zm-168.2-10h161.8c-6-26.9-26.8-132 .3-174.7 30.5-47.5 30.6-113.4.4-167.8-27-48.6-71.8-77.5-120.2-77.5-.5 0-1.1 0-1.6 0-50.2.7-137.6 20.3-158.5 144-2.1 12.2 2.8 21.7 7.1 30.1 5 9.8 10.6 20.8-.1 31.6l-1.9 1.9c-13.1 13.1-29.3 29.5-26.2 40.7 1.9 6.8 11.5 12.6 27.7 16.8 2.2.6 3.8 2.6 3.8 4.8v69.5h102.4c2.8 0 5 2.2 5 5z"/>
  <g fill="#FFFFFF">
    <g>
      <path d="m235.7 184.4c-1.3 0-2.6-.5-3.5-1.5-25.5-25.5-51.9-51.9-51.9-79.2 0-16.7 13.6-30.2 30.2-30.2 12.2 0 19.5 5.3 25.2 13.8 5.7-8.5 13-13.8 25.2-13.8 16.7 0 30.2 13.6 30.2 30.2 0 27.3-26.4 53.7-51.9 79.2-.9 1-2.2 1.5-3.5 1.5zm-25.2-100.9c-11.1 0-20.2 9.1-20.2 20.2 0 22 22.5 45.6 45.4 68.6 22.9-23 45.4-46.6 45.4-68.6 0-11.1-9.1-20.2-20.2-20.2-9.6 0-14.6 3.9-20.7 16.1-.8 1.7-2.6 2.8-4.5 2.8s-3.6-1.1-4.5-2.8c-6-12.2-11.1-16.1-20.7-16.1z"/>
    </g>
    <g>
      <path d="m246.8 266.6c-2.4 0-4.5-1.7-4.9-4.1-4.8-26.4 7.3-37.5 21.2-50.3 2.9-2.7 5.8-5.4 8.9-8.4l21.8-21.8c2.4-2.4 5.6-4 8.9-4.4v-42.8c0-9.8 8-17.8 17.8-17.8s17.8 8 17.8 17.8v34.2c0 11.8.4 20.3.8 27.2 1.3 24.2.6 25.6-22.7 48.6-2.2 2.2-4.7 4.6-7.4 7.3-.5.5-1 1-1.6 1.5-3.5 3.3-5.1 5.1-4.8 7.5.3 2.7-1.6 5.2-4.4 5.5-2.7.3-5.2-1.6-5.5-4.4-.9-7.6 4.1-12.4 7.8-15.9.5-.5 1-.9 1.4-1.4 2.7-2.7 5.2-5.1 7.4-7.4 10.8-10.6 16.1-15.9 18.4-20.7 2.1-4.5 1.9-9.4 1.3-20.2-.3-6.6-.8-15.6-.8-27.7v-34.2c0-4.3-3.5-7.8-7.8-7.8s-7.8 3.5-7.8 7.8v44.9c1 .6 2 1.4 2.9 2.3 6 6 6 15.8 0 21.9l-21.8 21.8c-2 2-5.1 2-7.1 0s-2-5.1 0-7.1l21.8-21.8c1-1 1.6-2.4 1.6-3.9s-.6-2.8-1.6-3.9c-.6-.6-1.4-1.1-2.2-1.3-.1 0-.1 0-.2-.1-.5-.1-1-.2-1.5-.2-1.5 0-2.8.6-3.9 1.6l-21.6 21.9c-3.2 3.2-6.2 6-9.2 8.7-13.7 12.6-21.9 20.2-18.1 41.2.5 2.7-1.3 5.3-4 5.8-.3.1-.6.1-.9.1z"/>
    </g>
    <g>
      <path d="m296.1 292h-47.6c-9.8 0-17.7-7.9-17.7-17.7v-12.7c0-2.8 2.2-5 5-5h73c2.8 0 5 2.2 5 5v12.7c0 9.8-8 17.7-17.7 17.7zm-55.4-25.4v7.7c0 4.3 3.5 7.7 7.7 7.7h47.6c4.3 0 7.7-3.5 7.7-7.7v-7.7z"/>
    </g>
    <g>
      <path d="m224.7 266.6c-.3 0-.6 0-.9-.1-2.7-.5-4.5-3.1-4-5.8 3.8-21-4.5-28.6-18.1-41.2-2.9-2.7-6-5.5-9.2-8.7l-21.8-21.8c-1.4-1.4-3.4-1.9-5.2-1.4-.1 0-.3.1-.4.1-.8.3-1.5.7-2.1 1.3-1 1-1.6 2.4-1.6 3.9s.6 2.8 1.6 3.9l21.8 21.8c2 2 2 5.1 0 7.1s-5.1 2-7.1 0l-21.8-21.8c-2.9-2.9-4.5-6.8-4.5-10.9s1.6-8 4.5-10.9c.9-.9 1.9-1.7 2.9-2.3v-44.9c0-4.3-3.5-7.8-7.8-7.8s-7.8 3.5-7.8 7.8v34.2c0 12.1-.5 21.1-.8 27.7-.6 10.8-.8 15.8 1.3 20.2 2.3 4.8 7.7 10.1 18.4 20.7 2.2 2.2 4.7 4.6 7.4 7.4l1.4 1.4c3.7 3.5 8.7 8.3 7.8 15.9-.3 2.7-2.8 4.7-5.6 4.4-2.7-.3-4.7-2.8-4.4-5.5.3-2.4-1.3-4.2-4.8-7.5-.5-.5-1.1-1-1.6-1.5-2.7-2.7-5.2-5.1-7.4-7.3-23.3-23-23.9-24.3-22.7-48.6.4-6.8.8-15.4.8-27.2v-34.2c0-9.8 8-17.8 17.8-17.8s17.8 8 17.8 17.8v42.8c3.3.4 6.4 1.9 8.9 4.4l21.8 21.8c3.1 3.1 6 5.8 8.9 8.4 13.9 12.9 26 24 21.2 50.3-.2 2.2-2.3 3.9-4.7 3.9z"/>
    </g>
    <g>
      <path d="m223 292h-47.6c-9.8 0-17.7-7.9-17.7-17.7v-12.7c0-2.8 2.2-5 5-5h73c2.8 0 5 2.2 5 5v12.7c0 9.8-7.9 17.7-17.7 17.7zm-55.3-25.4v7.7c0 4.3 3.5 7.7 7.7 7.7h47.6c4.3 0 7.7-3.5 7.7-7.7v-7.7z"/>
    </g>
  </g>
</svg>
