<svg width="64" height="64" viewBox="0 0 64 64" fill="none" xmlns="http://www.w3.org/2000/svg">
  <path
    d="M32 2C25.3726 2 20 7.37258 20 14V50C20 56.6274 25.3726 62 32 62C38.6274 62 44 56.6274 44 50V14C44 7.37258 38.6274 2 32 2Z"
    stroke="white" stroke-width="3" stroke-miterlimit="10" />
  <path
    d="M32 2C28.6863 2 26 4.68629 26 8V56C26 59.3137 28.6863 62 32 62C35.3137 62 38 59.3137 38 56V8C38 4.68629 35.3137 2 32 2Z"
    stroke="white" stroke-width="3" />
  <path
    d="M20 14C20 10.6863 17.3137 8 14 8C10.6863 8 8 10.6863 8 14V50C8 53.3137 10.6863 56 14 56C17.3137 56 20 53.3137 20 50V14Z"
    stroke="white" stroke-width="3" />
  <path
    d="M44 14C44 10.6863 46.6863 8 50 8C53.3137 8 56 10.6863 56 14V50C56 53.3137 53.3137 56 50 56C46.6863 56 44 53.3137 44 50V14Z"
    stroke="white" stroke-width="3" />
</svg>
