<svg width="20" height="27" viewBox="0 0 20 27" fill="none" xmlns="http://www.w3.org/2000/svg">
  <path
    d="M13.02 6.00001H13.88L14.18 6.06001C14.3667 6.10001 14.5533 6.15334 14.74 6.22001C14.9267 6.28667 15.0867 6.36001 15.22 6.44001L15.66 6.70001C15.82 6.83334 15.9333 6.93334 16 7.00001C16.0933 7.09334 16.2467 7.11334 16.46 7.06001C16.7 7.02001 16.9267 6.95334 17.14 6.86001C17.3 6.80667 17.54 6.71334 17.86 6.58001L18.38 6.32001L18.4 6.30001H18.44V6.28001H18.46V6.26001H18.5V6.28001L18.48 6.30001V6.36001L18.44 6.42001V6.48001L18.28 6.80001C18.2 6.94667 18.0767 7.13334 17.91 7.36001C17.7433 7.58667 17.6133 7.74001 17.52 7.82001L17.28 8.02001C17.2667 8.03334 17.24 8.06001 17.2 8.10001L17.16 8.14001L17.04 8.22001H17.02L17 8.24001H16.98V8.26001H16.96V8.28001H17.04L17.5 8.18001C17.78 8.12667 18.0667 8.04667 18.36 7.94001L18.8 7.80001L18.84 7.78001H18.88V7.76001H18.9L18.92 7.74001H19V7.76001L18.98 7.78001H18.96V7.80001L18.94 7.82001V7.84001H18.92C18.92 7.85334 18.8533 7.94667 18.72 8.12001L18.5 8.40001C18.4867 8.40001 18.48 8.40667 18.48 8.42001L18.46 8.44001C18.4467 8.46667 18.3267 8.59334 18.1 8.82001C17.9133 9.00667 17.7133 9.18667 17.5 9.36001C17.2867 9.53334 17.18 9.74001 17.18 9.98001C17.18 10.1267 17.1667 10.38 17.14 10.74V10.8C17.1267 11.0933 17.0867 11.42 17.02 11.78C16.9667 12.0733 16.8733 12.4667 16.74 12.96C16.66 13.2667 16.5133 13.7 16.3 14.26C16.18 14.5533 15.9933 14.9333 15.74 15.4C15.58 15.68 15.4 15.9667 15.2 16.26C15.1067 16.38 14.9667 16.56 14.78 16.8L14.7 16.9C14.5933 17.0467 14.38 17.28 14.06 17.6L13.64 18.02C13.56 18.1 13.4533 18.1867 13.32 18.28C13.1467 18.44 12.9467 18.6 12.72 18.76L12.46 18.92C12.3133 19.0267 12.2067 19.1 12.14 19.14C11.8867 19.2733 11.6667 19.3867 11.48 19.48C11.32 19.5733 11.0533 19.7 10.68 19.86C10.4 19.9667 10.0867 20.0733 9.74 20.18C9.51333 20.2467 9.2 20.32 8.8 20.4C8.57333 20.44 8.23333 20.4867 7.78 20.54L7.2 20.6H6.14L6 20.58H5.78L4.9 20.44C4.55333 20.3867 4.32 20.3467 4.2 20.32C4.02667 20.28 3.69333 20.18 3.2 20.02C2.8 19.8733 2.42667 19.72 2.08 19.56L1.22 19.12L1.08 19.02H1.06V19H1.04V18.98H1.02V18.96H1V18.94H1.1C1.12667 18.9533 1.19333 18.96 1.3 18.96L1.5 18.98H2.2C2.52 18.9533 2.76667 18.9267 2.94 18.9C3.24667 18.8467 3.54667 18.78 3.84 18.7C4.09333 18.6333 4.41333 18.5267 4.8 18.38C5.08 18.26 5.28333 18.1667 5.41 18.1C5.53667 18.0333 5.72 17.9133 5.96 17.74L6.36 17.48H6.38V17.46H6.4V17.44L6.42 17.42L6.3 17.4H6.04L5.66 17.32C5.47333 17.28 5.28667 17.2133 5.1 17.12C4.88667 17.0267 4.69333 16.9267 4.52 16.82C4.32 16.7 4.18 16.6 4.1 16.52L3.78 16.2C3.66 16.0533 3.54667 15.9033 3.44 15.75C3.33333 15.5967 3.24 15.42 3.16 15.22L3.02 14.92V14.9L3 14.88V14.84L3.02 14.86L3.22 14.88C3.3 14.8933 3.48667 14.9 3.78 14.9C4.00667 14.9 4.18667 14.8867 4.32 14.86C4.37333 14.8467 4.43333 14.84 4.5 14.84L4.52 14.82H4.56L4.6 14.8H4.62L4.58 14.78H4.56L4.52 14.76H4.46C4.44667 14.7467 4.42667 14.74 4.4 14.74L4.34 14.72L3.9 14.54C3.67333 14.4467 3.48667 14.3467 3.34 14.24C3.15333 14.1067 3.02 14.0033 2.94 13.93C2.86 13.8567 2.74 13.7267 2.58 13.54L2.52 13.48C2.37333 13.3067 2.24 13.0933 2.12 12.84C1.97333 12.52 1.88 12.2867 1.84 12.14C1.78667 11.9267 1.74667 11.7 1.72 11.46L1.7 11.12H1.74V11.14H1.76L1.78 11.16H1.8L2.04 11.28C2.22667 11.36 2.44 11.42 2.68 11.46C2.94667 11.5267 3.09333 11.56 3.12 11.56H3.34H3.32V11.54H3.3L3.26 11.5H3.24L3.08 11.38L2.8 11.12L2.7 11.02C2.62 10.9133 2.56 10.8333 2.52 10.78C2.4 10.6333 2.31 10.5033 2.25 10.39C2.19 10.2767 2.11333 10.1133 2.02 9.90001C1.92667 9.68667 1.86 9.46667 1.82 9.24001C1.79333 9.12001 1.76667 8.93334 1.74 8.68001V8.62001C1.74 8.36667 1.74667 8.19334 1.76 8.10001C1.77333 8.00667 1.80667 7.84001 1.86 7.60001C1.9 7.42667 1.97333 7.23334 2.08 7.02001L2.22 6.72001V6.66001H2.24H2.26V6.68001H2.28V6.70001L2.52 6.96001C2.61333 7.06667 2.78667 7.24667 3.04 7.50001C3.24 7.70001 3.35 7.80334 3.37 7.81001C3.39 7.81667 3.40667 7.83334 3.42 7.86001L3.46 7.90001C3.47333 7.91334 3.51333 7.95334 3.58 8.02001L3.78 8.18001C3.9 8.28667 4.14 8.46001 4.5 8.70001C4.83333 8.92667 5.16 9.12667 5.48 9.30001C5.8 9.47334 6.19333 9.64667 6.66 9.82001C7.03333 9.96667 7.32667 10.0733 7.54 10.14C7.72667 10.18 8.01333 10.24 8.4 10.32C8.74667 10.3867 9.05333 10.4333 9.32 10.46L9.74 10.5H9.84L9.8 10.26C9.78667 10.1667 9.78 9.97334 9.78 9.68001C9.78 9.44001 9.8 9.22001 9.84 9.02001C9.85333 8.84667 9.90667 8.63334 10 8.38001C10.08 8.18001 10.1533 8.01334 10.22 7.88001L10.52 7.44001C10.6533 7.26667 10.81 7.09667 10.99 6.93001C11.17 6.76334 11.38 6.61334 11.62 6.48001C11.94 6.32001 12.1667 6.22001 12.3 6.18001C12.4733 6.11334 12.6467 6.06667 12.82 6.04001L13.02 6.00001Z"
    fill="white" />
</svg>
