<?xml version="1.0" encoding="UTF-8"?>
<svg id="Layer_1" xmlns="http://www.w3.org/2000/svg" viewBox="0 0 1280 1280">
  <defs>
    <style>
      .cls-1, .cls-2 {
        fill: #ee243d;
      }

      .cls-2, .cls-3 {
        fill-rule: evenodd;
      }

      .cls-3 {
        fill: #16122e;
      }
    </style>
  </defs>
  <g>
    <path class="cls-2" d="M461.52,0h356.95c27.39,0,49.92,21.85,51.02,48.99-1.93,450.45-370.06,818.58-820.51,820.51-27.14-1.1-48.99-23.63-48.99-51.02v-402.56c0-3.01,2.46-5.46,5.46-5.46h399.52c3.02,0,5.46-2.45,5.46-5.46V51.07c0-28.09,22.98-51.07,51.07-51.07h0Z"/>
    <path class="cls-1" d="M818.48,1280h-356.95c-27.39,0-49.92-21.85-51.02-48.99,1.93-450.46,370.06-818.58,820.51-820.52,27.14,1.1,48.99,23.64,48.99,51.02v402.55c0,3.01-2.46,5.46-5.46,5.46h-399.52c-3.02,0-5.46,2.45-5.46,5.46v353.92c0,28.09-22.98,51.07-51.07,51.07h0Z"/>
  </g>
  <path class="cls-3" d="M966.51,300.47c76.57-100.6,88.15-146.5,24.45-238.91-3.44-5,2.6-11.02,7.59-7.56,83.16,57.74,125.5,57.48,207.02,1.01,5.01-3.47,11.06,2.6,7.57,7.6-56.8,81.3-57.22,123.64.18,207.03,3.44,5-2.61,11.02-7.59,7.56-92.15-64.07-138.31-52.89-239.22,23.28h0Z"/>
</svg>