<svg width="126" height="39" viewBox="0 0 126 39" fill="none" xmlns="http://www.w3.org/2000/svg">
  <g clip-path="url(#clip0_566_5647)">
    <path
      d="M51.4299 24.9208H50.4661C49.2852 24.9208 48.3301 23.966 48.3301 22.7855V13.3762H49.181C50.5876 13.3762 51.8988 14.0706 52.6976 15.225L55.6151 19.461V13.3762H56.5876C57.7685 13.3762 58.7236 14.331 58.7236 15.5115V24.9208H58.3068C56.6223 24.9208 55.042 24.0962 54.0869 22.7073L51.4212 18.8447V24.9295L51.4299 24.9208Z"
      fill="white" />
    <path
      d="M63.0995 24.3479C62.1877 23.8097 61.4584 23.0806 60.9287 22.1692C60.3991 21.2578 60.1299 20.2595 60.1299 19.1832C60.1299 18.1069 60.3991 17.1086 60.9287 16.1972C61.4584 15.2858 62.1877 14.5567 63.0995 14.0185C64.0112 13.4803 65.0097 13.2112 66.0864 13.2112C67.1631 13.2112 68.179 13.4803 69.0907 14.0098C70.0024 14.5393 70.7318 15.2684 71.2701 16.1885C71.8085 17.1086 72.0776 18.1069 72.0776 19.1832C72.0776 20.2595 71.8085 21.2578 71.2701 22.1779C70.7318 23.0979 70.0024 23.8271 69.0907 24.3566C68.179 24.8861 67.1718 25.1551 66.0864 25.1551C65.001 25.1551 64.0112 24.8861 63.0995 24.3479ZM67.5365 21.6484C67.9793 21.388 68.3266 21.0494 68.5871 20.6067C68.8736 20.1207 68.9952 19.5912 68.9691 19.0183C68.9518 18.6277 68.8476 18.2371 68.6652 17.8899C68.4048 17.3864 68.0314 16.9871 67.5451 16.7093C67.1023 16.4489 66.6247 16.3274 66.0951 16.3274C65.5654 16.3274 65.1052 16.4576 64.6798 16.7093C64.2282 16.9784 63.8722 17.3517 63.6117 17.8204C63.412 18.185 63.2905 18.5929 63.2731 19.0009C63.2384 19.5825 63.3686 20.1207 63.6552 20.6067C63.9157 21.0408 64.2543 21.388 64.6884 21.6484C65.1226 21.9088 65.5915 22.0303 66.1038 22.0303C66.6161 22.0303 67.111 21.9001 67.5538 21.6484H67.5365Z"
      fill="white" />
    <path
      d="M79.6321 24.9208H78.4686C77.0185 24.9208 75.7161 24.0267 75.1951 22.6813L71.583 13.3762H74.926L77.8695 20.98L80.266 14.739C80.5872 13.9143 81.3774 13.3675 82.2544 13.3675H84.1299L79.6321 24.9121V24.9208Z"
      fill="white" />
    <path
      d="M84.7726 24.9208H81.4297L85.9101 13.3762H88.0201C88.897 13.3762 89.6872 13.9143 90.0085 14.7389L93.9766 24.9295H90.6336L89.9216 23.0632H85.4673L84.7553 24.9295L84.7726 24.9208ZM87.7162 17.317L86.544 20.3984H88.8884L87.7162 17.317Z"
      fill="white" />
    <path
      d="M93.2381 19.4176L91.5536 13.4109H93.7243C94.4884 13.4109 95.1918 13.8189 95.5738 14.4785L97.1541 19.7908L99.0123 14.4872C99.3943 13.8189 100.098 13.4109 100.87 13.4109H102.737V24.9555H101.035C100.263 24.9555 99.6288 24.3305 99.6288 23.5493V19.2613L98.4045 22.5685C98.0224 23.2282 98.0224 23.6274 97.2583 23.6274H97.0065C96.2424 23.6274 95.5391 23.2195 95.157 22.5685L91.5449 13.4109L93.2381 19.4176Z"
      fill="white" />
    <path
      d="M112.949 24.9208H104.145V13.3762H112.949V16.1451H107.236V17.7944H111.621V20.5026H107.236V22.1518H112.949V24.9208Z"
      fill="white" />
    <path
      d="M114.407 24.9642V13.4196H119.6C120.65 13.4196 121.614 13.68 122.491 14.2008C123.377 14.7216 124.071 15.4247 124.592 16.3101C125.113 17.1954 125.374 18.1589 125.374 19.2005C125.374 20.2422 125.113 21.2143 124.592 22.091C124.071 22.9764 123.377 23.6708 122.491 24.1916C121.605 24.7125 120.642 24.9729 119.6 24.9729H114.407V24.9642ZM119.591 21.848C120.077 21.848 120.52 21.7265 120.919 21.4921C121.319 21.2577 121.649 20.9366 121.883 20.5199C122.118 20.1033 122.239 19.6606 122.239 19.1832C122.239 18.7058 122.118 18.2544 121.883 17.8551C121.649 17.4558 121.328 17.126 120.919 16.8829C120.511 16.6399 120.069 16.5184 119.591 16.5184H117.498V21.848H119.591Z"
      fill="white" />
    <path fill-rule="evenodd" clip-rule="evenodd"
      d="M14.2059 0H24.9033C25.7282 0 26.3968 0.651012 26.4315 1.46695C26.3707 14.9646 15.3347 25.9971 1.83266 26.0579C1.01646 26.0231 0.365234 25.3461 0.365234 24.5301V13.8362C0.365234 12.9942 1.05119 12.3085 1.89344 12.3085H12.669V1.52771C12.669 0.685733 13.355 0 14.1972 0H14.2059Z"
      fill="#EF233C" />
    <path
      d="M24.9034 38.3663H14.2059C13.3811 38.3663 12.7125 37.7153 12.6777 36.8994C12.7385 23.4017 23.7746 12.3692 37.2766 12.3085C38.0928 12.3432 38.744 13.0202 38.744 13.8362V24.5301C38.744 25.3721 38.058 26.0579 37.2158 26.0579H26.4402V36.8299C26.4402 37.6719 25.7543 38.3576 24.912 38.3576L24.9034 38.3663Z"
      fill="#EF233C" />
    <path fill-rule="evenodd" clip-rule="evenodd"
      d="M29.4188 8.93187C31.6764 5.96325 31.9803 4.66123 30.1656 1.97906C30.044 1.80545 30.2611 1.58845 30.4347 1.70997C32.7965 3.3158 34.0555 3.30712 36.3739 1.74469C36.5562 1.62317 36.7646 1.84018 36.6431 2.01378C35.0628 4.3227 35.0541 5.58133 36.6431 7.95101C36.7646 8.12462 36.5476 8.34162 36.3739 8.2201C33.6995 6.39726 32.3884 6.69239 29.4102 8.93187H29.4188Z"
      fill="white" />
  </g>
  <defs>
    <clipPath id="clip0_566_5647">
      <rect width="125" height="38.3663" fill="white" transform="translate(0.365234)" />
    </clipPath>
  </defs>
</svg>
