<?xml version="1.0" encoding="UTF-8"?>
<svg id="Layer_1" xmlns="http://www.w3.org/2000/svg" viewBox="0 0 1280 360.78">
  <defs>
    <style>
      .cls-1, .cls-2 {
        fill: #16122e;
      }

      .cls-3, .cls-4 {
        fill: #ee243d;
      }

      .cls-4, .cls-2 {
        fill-rule: evenodd;
      }
    </style>
  </defs>
  <g>
    <path class="cls-1" d="M472.69,244.58h-10.75c-13.17,0-23.85-10.68-23.85-23.85v-105.23h9.53c15.69,0,30.38,7.72,39.28,20.65l32.6,47.33v-67.98h10.91c13.17,0,23.85,10.68,23.85,23.85v105.23h-4.68c-18.83,0-36.46-9.26-47.14-24.77l-29.75-43.2v67.98Z"/>
    <path class="cls-1" d="M599.37,238.13c-10.21-6.02-18.3-14.14-24.27-24.35-5.97-10.21-8.95-21.34-8.95-33.39s2.98-23.17,8.95-33.38c5.97-10.21,14.06-18.33,24.27-24.35,10.21-6.02,21.34-9.04,33.38-9.04s23.35,2.99,33.56,8.95c10.21,5.97,18.33,14.08,24.35,24.35,6.02,10.27,9.03,21.43,9.03,33.47s-3.01,23.21-9.03,33.47c-6.03,10.27-14.15,18.39-24.35,24.35-10.21,5.97-21.4,8.95-33.56,8.95s-23.18-3.01-33.38-9.04ZM648.94,207.93c4.93-2.87,8.83-6.74,11.7-11.62,3.17-5.39,4.59-11.31,4.25-17.77-.23-4.38-1.39-8.72-3.41-12.61-2.93-5.67-7.12-10.08-12.55-13.24-4.94-2.87-10.33-4.3-16.18-4.3s-11.01,1.43-15.83,4.3c-5.06,3.01-9.05,7.17-11.96,12.46-2.23,4.05-3.55,8.6-3.81,13.21-.38,6.53,1.04,12.51,4.24,17.96,2.87,4.88,6.71,8.75,11.53,11.62,4.82,2.87,10.1,4.3,15.83,4.3s11.24-1.43,16.18-4.3Z"/>
    <path class="cls-1" d="M782.88,244.58h-13.03c-19.37,0-30.76-9.96-36.62-25.07l-40.35-104.01h37.35l32.87,85.02,26.82-69.73c3.54-9.21,12.39-15.29,22.26-15.29h20.97l-50.26,129.08Z"/>
    <path class="cls-1" d="M836.55,244.58h-37.35l50.08-129.08h23.62c9.83,0,18.66,6.03,22.22,15.2l44.34,113.88h-37.35l-7.92-20.82h-49.74l-7.92,20.82ZM869.43,159.56l-13.08,34.42h26.16l-13.08-34.42Z"/>
    <path class="cls-3" d="M907.78,115.92h24.25c8.54,0,13.35,4.56,17.61,11.97l17.66,59.37,23.87-59.3c4.24-7.44,12.15-12.04,20.72-12.04h20.91v129.08h-19.05c-8.68,0-15.71-7.03-15.71-15.71v-47.96s-13.65,37.01-13.65,37.01c-5.08,18.74-29.49,16-36.23,0l-40.38-102.41Z"/>
    <path class="cls-3" d="M1145.62,244.58h-98.44V115.5h98.44v30.98h-63.85v18.41h49.05v30.29h-49.05v18.41h63.85v30.98Z"/>
    <path class="cls-3" d="M1157.46,244.58V115.5h58c11.7,0,22.49,2.9,32.35,8.69,9.87,5.8,17.7,13.66,23.5,23.58,5.79,9.93,8.69,20.68,8.69,32.27s-2.9,22.49-8.69,32.35c-5.8,9.87-13.63,17.7-23.5,23.5-9.87,5.79-20.65,8.69-32.35,8.69h-58ZM1215.46,209.82c5.39,0,10.35-1.32,14.89-3.96,4.53-2.64,8.12-6.25,10.76-10.84,2.64-4.59,3.96-9.58,3.96-14.98s-1.32-10.35-3.96-14.89c-2.64-4.53-6.22-8.15-10.76-10.85-4.53-2.69-9.5-4.04-14.89-4.04h-23.41v59.55h23.41Z"/>
  </g>
  <g>
    <g>
      <path class="cls-4" d="M130.08,0h100.61c7.72,0,14.07,6.16,14.38,13.81-.54,126.96-104.3,230.72-231.27,231.27-7.65-.31-13.81-6.66-13.81-14.38v-113.46c0-.85.69-1.54,1.54-1.54h112.61c.85,0,1.54-.69,1.54-1.54V14.39c0-7.92,6.48-14.39,14.39-14.39h0Z"/>
      <path class="cls-3" d="M230.69,360.78h-100.61c-7.72,0-14.07-6.16-14.38-13.81.54-126.96,104.3-230.72,231.27-231.27,7.65.31,13.81,6.66,13.81,14.38v113.46c0,.85-.69,1.54-1.54,1.54h-112.61c-.85,0-1.54.69-1.54,1.54v99.76c0,7.92-6.48,14.39-14.39,14.39h0Z"/>
    </g>
    <path class="cls-2" d="M272.42,84.69c21.58-28.35,24.85-41.29,6.89-67.34-.97-1.41.73-3.11,2.14-2.13,23.44,16.27,35.37,16.2,58.35.29,1.41-.98,3.12.73,2.13,2.14-16.01,22.91-16.13,34.85.05,58.35.97,1.41-.74,3.11-2.14,2.13-25.97-18.06-38.98-14.91-67.42,6.56h0Z"/>
  </g>
</svg>