<?xml version="1.0" encoding="utf-8"?>
<!-- Generator: Adobe Illustrator 19.2.1, SVG Export Plug-In . SVG Version: 6.00 Build 0)  -->
<svg version="1.1" id="Calque_1" xmlns="http://www.w3.org/2000/svg" xmlns:xlink="http://www.w3.org/1999/xlink"
	 viewBox="0 0 16 16" >
<style type="text/css">
	.st0{fill:#F14245;}
	.st1{fill:#FFFFFF;}
</style>
	<path id="path4645" class="st0" d="M16,8c0,4.4-3.6,8-8,8s-8-3.6-8-8s3.6-8,8-8S16,3.6,16,8"/>
	<path id="path4647" class="st1" d="M12.4,12.2c0-2.8,0-5.5-0.1-8.3H10L8,9.5l0,0l-2-5.7H3.6
		c-0.1,2.8-0.1,5.6-0.1,8.3h1.5c0-2.2,0-4.5,0.1-6.6l0,0l2.1,6h1.4l2.2-6l0,0c0.1,2.1,0.1,4.7,0.1,6.6H12.4L12.4,12.2z"/>
</svg>
